<svg width="4354" height="1201" xmlns="http://www.w3.org/2000/svg" xmlns:xlink="http://www.w3.org/1999/xlink" xml:space="preserve" overflow="hidden"><defs><clipPath id="clip0"><rect x="46" y="506" width="4354" height="1201"/></clipPath></defs><g clip-path="url(#clip0)" transform="translate(-46 -506)"><rect x="47.0001" y="515" width="4353" height="1189" fill="#FFFFFF"/><path d="M47.0001 1088.75 4222.5 1088.75 4222.5 1000 4400 1177.5 4222.5 1355 4222.5 1266.25 47.0001 1266.25Z" fill="#FFDF99" fill-rule="evenodd"/><path d="M2004 648 2299 876.784 2299 1475.22 2004 1704Z" fill-rule="evenodd"/><text fill="#FFFFFF" font-family="Calibri,Calibri_MSFontService,sans-serif" font-weight="400" font-size="83" transform="matrix(6.12323e-17 1 -1 6.12323e-17 2102.92 1113)">MIL</text><rect x="2369.5" y="1628.65" width="74.8521" height="75.8522" fill="#648FFF"/><path d="M2444.35 1628.65 3424.5 648.5 3424.5 724.352 2444.35 1704.5Z" fill="#5073CD" fill-rule="evenodd"/><path d="M2369.5 1628.65 3349.65 648.5 3424.5 648.5 2444.35 1628.65Z" fill="#82A5FF" fill-rule="evenodd"/><path d="M2369.5 1628.65 3349.65 648.5 3424.5 648.5 3424.5 724.352 2444.35 1704.5 2369.5 1704.5ZM2369.5 1628.65 2444.35 1628.65 3424.5 648.5M2444.35 1628.65 2444.35 1704.5" stroke="#0D0D0D" stroke-width="4.58333" stroke-miterlimit="8" fill="none" fill-rule="evenodd"/><path d="M3494 648 3789 876.784 3789 1475.22 3494 1704Z" fill-rule="evenodd"/><text fill="#FFFFFF" font-family="Calibri,Calibri_MSFontService,sans-serif" font-weight="400" font-size="83" transform="matrix(6.12323e-17 1 -1 6.12323e-17 3592.87 1102)">MLP</text><text font-family="Arial,Arial_MSFontService,sans-serif" font-weight="400" font-size="83" transform="matrix(1 0 0 1 3829.6 1207)">Prediction</text><rect x="48.5" y="1629.72" width="74.7817" height="74.7828" fill="#648FFF"/><path d="M123.282 1629.72 1102.5 650.5 1102.5 725.283 123.282 1704.5Z" fill="#5073CD" fill-rule="evenodd"/><path d="M48.5 1629.72 1027.72 650.5 1102.5 650.5 123.282 1629.72Z" fill="#82A5FF" fill-rule="evenodd"/><path d="M48.5 1629.72 1027.72 650.5 1102.5 650.5 1102.5 725.283 123.282 1704.5 48.5 1704.5ZM48.5 1629.72 123.282 1629.72 1102.5 650.5M123.282 1629.72 123.282 1704.5" stroke="#0D0D0D" stroke-width="4.58333" stroke-miterlimit="8" fill="none" fill-rule="evenodd"/><rect x="151.5" y="1629.72" width="74.7817" height="74.7828" fill="#648FFF"/><path d="M226.282 1629.72 1205.5 650.5 1205.5 725.283 226.282 1704.5Z" fill="#5073CD" fill-rule="evenodd"/><path d="M151.5 1629.72 1130.72 650.5 1205.5 650.5 226.282 1629.72Z" fill="#82A5FF" fill-rule="evenodd"/><path d="M151.5 1629.72 1130.72 650.5 1205.5 650.5 1205.5 725.283 226.282 1704.5 151.5 1704.5ZM151.5 1629.72 226.282 1629.72 1205.5 650.5M226.282 1629.72 226.282 1704.5" stroke="#0D0D0D" stroke-width="4.58333" stroke-miterlimit="8" fill="none" fill-rule="evenodd"/><rect x="255.5" y="1629.72" width="74.7817" height="74.7828" fill="#648FFF"/><path d="M330.282 1629.72 1309.5 650.5 1309.5 725.283 330.282 1704.5Z" fill="#5073CD" fill-rule="evenodd"/><path d="M255.5 1629.72 1234.72 650.5 1309.5 650.5 330.282 1629.72Z" fill="#82A5FF" fill-rule="evenodd"/><path d="M255.5 1629.72 1234.72 650.5 1309.5 650.5 1309.5 725.283 330.282 1704.5 255.5 1704.5ZM255.5 1629.72 330.282 1629.72 1309.5 650.5M330.282 1629.72 330.282 1704.5" stroke="#0D0D0D" stroke-width="4.58333" stroke-miterlimit="8" fill="none" fill-rule="evenodd"/><rect x="647.5" y="1629.72" width="74.7817" height="74.7828" fill="#648FFF"/><path d="M722.282 1629.72 1701.5 650.5 1701.5 725.283 722.282 1704.5Z" fill="#5073CD" fill-rule="evenodd"/><path d="M647.5 1629.72 1626.72 650.5 1701.5 650.5 722.282 1629.72Z" fill="#82A5FF" fill-rule="evenodd"/><path d="M647.5 1629.72 1626.72 650.5 1701.5 650.5 1701.5 725.283 722.282 1704.5 647.5 1704.5ZM647.5 1629.72 722.282 1629.72 1701.5 650.5M722.282 1629.72 722.282 1704.5" stroke="#0D0D0D" stroke-width="4.58333" stroke-miterlimit="8" fill="none" fill-rule="evenodd"/><rect x="750.5" y="1629.72" width="74.7817" height="74.7828" fill="#648FFF"/><path d="M825.282 1629.72 1804.5 650.5 1804.5 725.283 825.282 1704.5Z" fill="#5073CD" fill-rule="evenodd"/><path d="M750.5 1629.72 1729.72 650.5 1804.5 650.5 825.282 1629.72Z" fill="#82A5FF" fill-rule="evenodd"/><path d="M750.5 1629.72 1729.72 650.5 1804.5 650.5 1804.5 725.283 825.282 1704.5 750.5 1704.5ZM750.5 1629.72 825.282 1629.72 1804.5 650.5M825.282 1629.72 825.282 1704.5" stroke="#0D0D0D" stroke-width="4.58333" stroke-miterlimit="8" fill="none" fill-rule="evenodd"/><rect x="853.5" y="1629.72" width="74.7817" height="74.7828" fill="#648FFF"/><path d="M928.282 1629.72 1907.5 650.5 1907.5 725.283 928.282 1704.5Z" fill="#5073CD" fill-rule="evenodd"/><path d="M853.5 1629.72 1832.72 650.5 1907.5 650.5 928.282 1629.72Z" fill="#82A5FF" fill-rule="evenodd"/><path d="M853.5 1629.72 1832.72 650.5 1907.5 650.5 1907.5 725.283 928.282 1704.5 853.5 1704.5ZM853.5 1629.72 928.282 1629.72 1907.5 650.5M928.282 1629.72 928.282 1704.5" stroke="#0D0D0D" stroke-width="4.58333" stroke-miterlimit="8" fill="none" fill-rule="evenodd"/><path d="M913 1174C913 1162.4 922.626 1153 934.5 1153 946.374 1153 956 1162.4 956 1174 956 1185.6 946.374 1195 934.5 1195 922.626 1195 913 1185.6 913 1174Z" fill-rule="evenodd"/><path d="M975 1174C975 1162.4 984.402 1153 996 1153 1007.6 1153 1017 1162.4 1017 1174 1017 1185.6 1007.6 1195 996 1195 984.402 1195 975 1185.6 975 1174Z" fill-rule="evenodd"/><path d="M1035 1174C1035 1162.4 1044.4 1153 1056 1153 1067.6 1153 1077 1162.4 1077 1174 1077 1185.6 1067.6 1195 1056 1195 1044.4 1195 1035 1185.6 1035 1174Z" fill-rule="evenodd"/><text font-family="Arial,Arial_MSFontService,sans-serif" font-weight="400" font-size="83" transform="matrix(1 0 0 1 1239.8 612)">Tile features</text><text font-family="Arial,Arial_MSFontService,sans-serif" font-weight="400" font-size="83" transform="matrix(1 0 0 1 2741.67 612)">Aggregate</text></g></svg>